<svg xmlns="http://www.w3.org/2000/svg" xmlns:xlink="http://www.w3.org/1999/xlink" width="51.339" height="48.835" viewBox="0 0 51.339 48.835">
  <defs>
    <clipPath id="clip-path">
      <rect id="Rectangle_702" data-name="Rectangle 702" width="51.339" height="48.835" transform="translate(0 0)" fill="#006800"/>
    </clipPath>
  </defs>
  <g id="Group_328" data-name="Group 328" transform="translate(0 0)">
    <g id="Group_327" data-name="Group 327" clip-path="url(#clip-path)">
      <path id="Path_446" data-name="Path 446" d="M0,20.731,11.9,0,23.722,20.731Zm11.965,28.1a9.466,9.466,0,0,1-6.956-2.852,9.91,9.91,0,0,1,0-13.913,9.462,9.462,0,0,1,6.956-2.852,9.348,9.348,0,0,1,6.922,2.852,10,10,0,0,1,0,13.913,9.351,9.351,0,0,1-6.922,2.852m0-2.157a7.419,7.419,0,0,0,5.392-2.226,7.641,7.641,0,0,0,0-10.852,7.419,7.419,0,0,0-5.392-2.226A7.384,7.384,0,0,0,6.539,33.6a7.726,7.726,0,0,0,0,10.852,7.384,7.384,0,0,0,5.426,2.226m-8.278-28.1H20.1L11.9,4.383ZM29.913,29.218H49.461V48.835H29.913Zm2.157,17.46h15.3v-15.3H32.07Zm7.652-25.947q-2.574-2.088-4.73-3.826A36.54,36.54,0,0,1,31.27,13.5a14.608,14.608,0,0,1-2.4-3.305,7.461,7.461,0,0,1-.835-3.443,5.491,5.491,0,0,1,1.635-4.1,5.672,5.672,0,0,1,4.139-1.6,6.278,6.278,0,0,1,3.061.8,10.163,10.163,0,0,1,2.852,2.469,9.189,9.189,0,0,1,2.817-2.469,6.475,6.475,0,0,1,3.1-.8,5.411,5.411,0,0,1,4.07,1.7,5.848,5.848,0,0,1,1.634,4.209,7.133,7.133,0,0,1-.834,3.339,14.407,14.407,0,0,1-2.4,3.235,42.115,42.115,0,0,1-3.687,3.374q-2.123,1.738-4.7,3.826m0-2.783a51.341,51.341,0,0,0,7.339-6.539,7.368,7.368,0,0,0,2.122-4.522,3.644,3.644,0,0,0-1.009-2.643A3.382,3.382,0,0,0,45.635,3.2a3.555,3.555,0,0,0-1.913.591,21.2,21.2,0,0,0-2.678,2.192L39.722,7.3,38.331,5.983a14.385,14.385,0,0,0-2.644-2.226A3.9,3.9,0,0,0,33.739,3.2a3.483,3.483,0,0,0-2.574.974,3.573,3.573,0,0,0-.973,2.644,7.418,7.418,0,0,0,2.121,4.591,50.219,50.219,0,0,0,7.409,6.539" fill="#006800"/>
    </g>
  </g>
</svg>
