<svg xmlns="http://www.w3.org/2000/svg" width="162.321" height="124.18" viewBox="0 0 162.321 124.18">
  <path id="Path_433" data-name="Path 433" d="M864.041,83.787h27.5V90.44h-27.5ZM873.8,148.76l-22.175-16.41,4.213-5.322,22.176,16.41ZM855.393,46.533l-4.214-5.323L873.132,24.58l4.214,5.544ZM753.83,139.89V106.184H741.412a12.505,12.505,0,0,1-12.2-12.2V80.239a12.505,12.505,0,0,1,12.2-12.2h35.258L811.707,47.2v79.83l-35.037-20.845H760.483V139.89Zm73.621-27.054V61.39a31.184,31.184,0,0,1,7.207,10.977,40.613,40.613,0,0,1,0,29.493,31.181,31.181,0,0,1-7.207,10.976M741.412,74.917a5.722,5.722,0,0,0-5.322,5.322V93.988a5.722,5.722,0,0,0,5.322,5.322h37.032l26.388,15.745V59.173L778.444,74.917Z" transform="translate(-729.216 -24.58)" fill="#ffe285"/>
</svg>
