<svg xmlns="http://www.w3.org/2000/svg" width="168.53" height="160.77" viewBox="0 0 168.53 160.77">
  <path id="Path_431" data-name="Path 431" d="M70.96,160.77a68.1,68.1,0,0,1-27.719-5.654A71.851,71.851,0,0,1,5.654,117.528,68.1,68.1,0,0,1,0,89.809,68.1,68.1,0,0,1,5.654,62.091,71.552,71.552,0,0,1,43.352,24.5,68.351,68.351,0,0,1,70.96,18.849a77.954,77.954,0,0,1,10.312.665,69.864,69.864,0,0,1,10.311,2.217v7.318a57.193,57.193,0,0,0-10.2-2.55,69.209,69.209,0,0,0-10.422-.776q-26.389,0-45.237,18.738T6.874,89.809q0,26.611,18.738,45.348T70.96,153.9q26.61,0,45.348-18.738t18.738-45.348q0-2.883-.222-6.209a34.731,34.731,0,0,0-1.109-6.653h6.874q.443,2.662.887,6.209a53.834,53.834,0,0,1,.444,6.653,68.1,68.1,0,0,1-5.655,27.719,71.851,71.851,0,0,1-37.587,37.587A68.1,68.1,0,0,1,70.96,160.77m28.384-36.811L66.969,91.584V45.459h6.653V88.7l30.6,30.38ZM134.381,61.2V34.149H107.105V27.276h27.276V0h6.874V27.276H168.53v6.874H141.255V61.2Z" fill="#ffe285"/>
</svg>
