<svg xmlns="http://www.w3.org/2000/svg" xmlns:xlink="http://www.w3.org/1999/xlink" width="61.217" height="24.904" viewBox="0 0 61.217 24.904">
  <defs>
    <clipPath id="clip-path">
      <rect id="Rectangle_701" data-name="Rectangle 701" width="61.217" height="24.904" transform="translate(0 0)" fill="#006800"/>
    </clipPath>
  </defs>
  <g id="Group_326" data-name="Group 326" transform="translate(0 0)">
    <g id="Group_325" data-name="Group 325" clip-path="url(#clip-path)">
      <path id="Path_445" data-name="Path 445" d="M0,24.9V22.817a4.671,4.671,0,0,1,2.643-4.035,13.173,13.173,0,0,1,6.887-1.6q.557,0,1.287.07t1.5.208a12.181,12.181,0,0,0-.626,2.053,10.1,10.1,0,0,0-.209,2.052V24.9Zm16.695,0v-3.13a5.221,5.221,0,0,1,.974-3.061,8.339,8.339,0,0,1,2.852-2.435,18.237,18.237,0,0,1,4.487-1.5,27.866,27.866,0,0,1,5.6-.522,27.723,27.723,0,0,1,5.635.522,18.254,18.254,0,0,1,4.452,1.5,8.333,8.333,0,0,1,2.853,2.435,5.22,5.22,0,0,1,.973,3.061V24.9Zm33.044,0V21.565a13.1,13.1,0,0,0-.174-2.157A6.243,6.243,0,0,0,48.9,17.46q.9-.138,1.6-.208a13.126,13.126,0,0,1,1.322-.07,12.83,12.83,0,0,1,6.782,1.6,4.675,4.675,0,0,1,2.609,4.035V24.9ZM18.782,22.747H42.435v-.765q.138-2.5-3.061-4.035a20.653,20.653,0,0,0-8.766-1.53,20.694,20.694,0,0,0-8.73,1.53q-3.235,1.531-3.1,4.035Zm-9.321-7.86a3.566,3.566,0,0,1-3.618-3.618A3.53,3.53,0,0,1,6.887,8.73,3.437,3.437,0,0,1,9.461,7.652,3.473,3.473,0,0,1,12,8.73a3.552,3.552,0,0,1,1.078,2.609,3.624,3.624,0,0,1-3.617,3.548m42.3,0a3.474,3.474,0,0,1-2.539-1.079,3.529,3.529,0,0,1,0-5.078,3.554,3.554,0,0,1,2.609-1.078A3.441,3.441,0,0,1,54.4,8.73a3.655,3.655,0,0,1,0,5.113,3.583,3.583,0,0,1-2.644,1.044M30.608,12.174A5.95,5.95,0,0,1,26.3,10.4a5.858,5.858,0,0,1-1.808-4.348,5.8,5.8,0,0,1,1.774-4.313,6.3,6.3,0,0,1,8.7,0A5.8,5.8,0,0,1,36.73,6.052a5.946,5.946,0,0,1-1.774,4.313,5.853,5.853,0,0,1-4.348,1.809m.07-2.157a3.75,3.75,0,0,0,2.748-1.148,3.83,3.83,0,0,0,1.148-2.817,3.961,3.961,0,0,0-6.748-2.818,3.774,3.774,0,0,0-1.183,2.818,3.83,3.83,0,0,0,1.148,2.817,3.916,3.916,0,0,0,2.887,1.148" fill="#006800"/>
    </g>
  </g>
</svg>
