<svg xmlns="http://www.w3.org/2000/svg" width="16.619" height="16" viewBox="0 0 16.619 16">
  <g id="Group_563" data-name="Group 563" transform="translate(-375 -457)">
    <path id="Path_338" data-name="Path 338" d="M5.455,16a1.458,1.458,0,0,1-1.473-1.473H6.927A1.458,1.458,0,0,1,5.455,16M2.509,12.309H8.4V13.4H2.509ZM2.6,11.2A5.967,5.967,0,0,1,.7,9.245,5.054,5.054,0,0,1,0,6.6,5.239,5.239,0,0,1,1.618,2.764,5.244,5.244,0,0,1,5.455,1.145,5.243,5.243,0,0,1,9.291,2.764,5.239,5.239,0,0,1,10.909,6.6a5.105,5.105,0,0,1-.691,2.645A5.812,5.812,0,0,1,8.309,11.2Z" transform="translate(375 457)" fill="#e6a800"/>
    <path id="Path_337" data-name="Path 337" d="M15.036,7.145l-.418-.909-.909-.418.909-.418.418-.909.419.909.909.418-.909.418ZM12.727,3.964l-.636-1.346-1.346-.636,1.346-.637L12.727,0l.637,1.345,1.345.637-1.345.636Z" transform="translate(375.255 457)" fill="#e67300"/>
  </g>
</svg>
