<svg xmlns="http://www.w3.org/2000/svg" xmlns:xlink="http://www.w3.org/1999/xlink" width="52.8" height="47.861" viewBox="0 0 52.8 47.861">
  <defs>
    <clipPath id="clip-path">
      <rect id="Rectangle_703" data-name="Rectangle 703" width="52.8" height="47.861" transform="translate(0 0)" fill="#006800"/>
    </clipPath>
  </defs>
  <g id="Group_329" data-name="Group 329" transform="translate(0 0)" clip-path="url(#clip-path)">
    <path id="Path_447" data-name="Path 447" d="M12.661,0H40.7V30.4L23.305,47.861l-.835-.626a2.205,2.205,0,0,1-.626-.835,2.622,2.622,0,0,1-.209-1.043v-.279L24.557,30.4H3.9a3.729,3.729,0,0,1-2.713-1.183A3.659,3.659,0,0,1,0,26.574V22.226a2.75,2.75,0,0,1,.139-.869L7.931,3.13A4.528,4.528,0,0,1,9.809.9,5.173,5.173,0,0,1,12.661,0M38.539,2.157h-26.3a2.571,2.571,0,0,0-1.218.313,2.178,2.178,0,0,0-.939,1.078L2.157,22.261v4.313a1.61,1.61,0,0,0,.487,1.183,1.7,1.7,0,0,0,1.252.486H27.131l-3.2,16.07L38.539,29.426Zm0,27.269v0ZM40.7,30.4V28.243h9.948V2.157H40.7V0H52.8V30.4Z" fill="#006800"/>
  </g>
</svg>
