<svg xmlns="http://www.w3.org/2000/svg" xmlns:xlink="http://www.w3.org/1999/xlink" width="64" height="64" viewBox="0 0 64 64">
  <defs>
    <clipPath id="clip-path">
      <rect id="Rectangle_700" data-name="Rectangle 700" width="64" height="64" fill="#006800"/>
    </clipPath>
  </defs>
  <g id="Group_323" data-name="Group 323" clip-path="url(#clip-path)">
    <path id="Path_444" data-name="Path 444" d="M3.826,35.548A3.633,3.633,0,0,1,1.113,34.4,3.807,3.807,0,0,1,0,31.653V14.331a2.318,2.318,0,0,1,.139-.8,2.272,2.272,0,0,1,.556-.8L13.426,0l.9.974a3.159,3.159,0,0,1,.452.557.921.921,0,0,1,.174.417v.487l-2.5,10.852H26.434a4.045,4.045,0,0,1,4.174,4.174v.7a2.957,2.957,0,0,1-.069.7,5.033,5.033,0,0,1-.209.626l-6.261,14.4A2.446,2.446,0,0,1,23.13,35.1a2.707,2.707,0,0,1-1.565.452Zm18.156-2.156,6.47-15.1V17.113a1.582,1.582,0,0,0-.487-1.217,1.678,1.678,0,0,0-1.183-.452H9.808l2.435-11.27L2.156,14.4V31.653A1.694,1.694,0,0,0,2.643,32.9a1.614,1.614,0,0,0,1.183.487ZM50.573,64l-.9-.974a2.17,2.17,0,0,1-.417-.556,1.085,1.085,0,0,1-.139-.417v-.487l2.435-10.853H37.565a4.043,4.043,0,0,1-4.174-4.174v-.695a2.957,2.957,0,0,1,.069-.7,5.033,5.033,0,0,1,.209-.626L39.93,30.053a2.266,2.266,0,0,1,.939-1.183,2.871,2.871,0,0,1,1.565-.417h17.74A3.635,3.635,0,0,1,62.886,29.6,3.812,3.812,0,0,1,64,32.348V49.67a2.318,2.318,0,0,1-.14.8,2.272,2.272,0,0,1-.556.8ZM42.017,30.609,35.548,45.635v1.252a1.582,1.582,0,0,0,.487,1.218,1.674,1.674,0,0,0,1.182.452H54.191l-2.434,11.2L61.843,49.6V32.348a1.694,1.694,0,0,0-.487-1.252,1.609,1.609,0,0,0-1.182-.487Zm-39.861.7v0ZM61.843,32.7v0Z" fill="#006800"/>
  </g>
</svg>
