<svg xmlns="http://www.w3.org/2000/svg" width="30" height="30" viewBox="0 0 30 30">
  <g id="Group_252" data-name="Group 252" transform="translate(-461.07 -5348.792)">
    <path id="Path_232" data-name="Path 232" d="M256.07,57.792A15,15,0,1,0,238.726,72.61V62.128h-3.808V57.792h3.808V54.487c0-3.759,2.24-5.836,5.666-5.836a23.073,23.073,0,0,1,3.358.293v3.692h-1.892a2.167,2.167,0,0,0-2.444,2.342v2.814h4.16l-.665,4.336h-3.495V72.61A15,15,0,0,0,256.07,57.792" transform="translate(235 5306)" fill="#1677f0"/>
    <path id="Path_233" data-name="Path 233" d="M246.909,62.128l.665-4.336h-4.16V54.978a2.167,2.167,0,0,1,2.444-2.342h1.892V48.944a23.073,23.073,0,0,0-3.358-.293c-3.426,0-5.666,2.077-5.666,5.836v3.305h-3.808v4.336h3.808V72.61a15.185,15.185,0,0,0,4.688,0V62.128Z" transform="translate(235 5306)" fill="#fff"/>
  </g>
</svg>
