<svg xmlns="http://www.w3.org/2000/svg" width="15.059" height="14.914" viewBox="0 0 15.059 14.914">
  <path id="Path_10" data-name="Path 10" d="M10.49,14.914l-5.9-2.08L.941,14.269a.622.622,0,0,1-.634-.032A.627.627,0,0,1,0,13.667V2.184a.883.883,0,0,1,.122-.459.643.643,0,0,1,.35-.29L4.592,0l5.9,2.056L14.117.639a.682.682,0,0,1,.635.008.547.547,0,0,1,.307.522v11.7a.632.632,0,0,1-.15.42.8.8,0,0,1-.372.255L10.49,14.914m-.42-.9V2.606L4.988.854V12.266Zm.724,0,3.541-1.16V1.281L10.794,2.606V14.018M.724,13.609l3.54-1.343V.854L.724,2.05Zm10.07-11v0ZM4.264.854v0Z"/>
</svg>
