<svg id="Group_268" data-name="Group 268" xmlns="http://www.w3.org/2000/svg" xmlns:xlink="http://www.w3.org/1999/xlink" width="16.003" height="16.003" viewBox="0 0 16.003 16.003">
  <defs>
    <clipPath id="clip-path">
      <rect id="Rectangle_604" data-name="Rectangle 604" width="16.003" height="16.003" fill="#0a0a0a" stroke="rgba(0,0,0,0)" stroke-width="1"/>
    </clipPath>
  </defs>
  <g id="Group_267" data-name="Group 267" transform="translate(0 0)" clip-path="url(#clip-path)">
    <path id="Path_255" data-name="Path 255" d="M10.4,11.2a5.4,5.4,0,0,0,3.971-1.63A5.4,5.4,0,0,0,16,5.6a5.4,5.4,0,0,0-1.63-3.971A5.4,5.4,0,0,0,10.4,0,5.405,5.405,0,0,0,6.431,1.63,5.405,5.405,0,0,0,4.8,5.6a5.4,5.4,0,0,0,1.63,3.971A5.4,5.4,0,0,0,10.4,11.2m.8,3.6v-2.44a2.057,2.057,0,0,1-.4.04h-.4a6.558,6.558,0,0,1-4.818-1.984A6.559,6.559,0,0,1,3.6,5.6V5.2a2.028,2.028,0,0,1,.04-.4H1.2a1.155,1.155,0,0,0-.847.353A1.155,1.155,0,0,0,0,6v8.8a1.156,1.156,0,0,0,.353.848A1.157,1.157,0,0,0,1.2,16H10a1.2,1.2,0,0,0,1.2-1.2" transform="translate(0 0)" fill="#0a0a0a" stroke="rgba(0,0,0,0)" stroke-width="1"/>
  </g>
</svg>
