<svg id="Group_262" data-name="Group 262" xmlns="http://www.w3.org/2000/svg" xmlns:xlink="http://www.w3.org/1999/xlink" width="17.779" height="16.003" viewBox="0 0 17.779 16.003">
  <defs>
    <clipPath id="clip-path">
      <rect id="Rectangle_603" data-name="Rectangle 603" width="17.779" height="16.003" fill="#0a0a0a"/>
    </clipPath>
  </defs>
  <g id="Group_261" data-name="Group 261" transform="translate(0 0)" clip-path="url(#clip-path)">
    <path id="Path_254" data-name="Path 254" d="M3.329,16a3.215,3.215,0,0,1-2.364-.965A3.215,3.215,0,0,1,0,12.674,3.216,3.216,0,0,1,.965,10.31a3.215,3.215,0,0,1,2.364-.965,3.214,3.214,0,0,1,2.364.965,3.214,3.214,0,0,1,.966,2.364,3.213,3.213,0,0,1-.966,2.364A3.214,3.214,0,0,1,3.329,16m11.12,0a3.3,3.3,0,0,1-3.329-3.329,3.3,3.3,0,0,1,3.329-3.33,3.3,3.3,0,0,1,3.329,3.33A3.3,3.3,0,0,1,14.449,16M8.9,6.659a3.215,3.215,0,0,1-2.364-.965A3.215,3.215,0,0,1,5.571,3.33,3.215,3.215,0,0,1,6.537.965,3.215,3.215,0,0,1,8.9,0a3.215,3.215,0,0,1,2.364.965,3.215,3.215,0,0,1,.965,2.364,3.215,3.215,0,0,1-.965,2.364A3.215,3.215,0,0,1,8.9,6.659" transform="translate(0 0)" fill="#0a0a0a"/>
  </g>
</svg>
