<svg xmlns="http://www.w3.org/2000/svg" width="21.003" height="17.401" viewBox="0 0 21.003 17.401">
  <path id="Path_256" data-name="Path 256" d="M16.252,7.251H20v1.5H16.252ZM17.5,16l-3.025-2.25.9-1.2L18.4,14.8ZM15.452,3.426l-.9-1.2L17.5,0l.9,1.2ZM3.25,15V11H1.5a1.447,1.447,0,0,1-1.063-.437A1.447,1.447,0,0,1,0,9.5v-3A1.447,1.447,0,0,1,.438,5.438,1.447,1.447,0,0,1,1.5,5H6l5-3V14L6,11H4.751v4ZM12,11.351v-6.7a4.569,4.569,0,0,1,1.088,1.463A4.318,4.318,0,0,1,13.5,8a4.317,4.317,0,0,1-.413,1.888A4.564,4.564,0,0,1,12,11.351" transform="translate(0.5 0.701)" fill="#0a0a0a" stroke="rgba(0,0,0,0)" stroke-width="1"/>
</svg>
