<svg xmlns="http://www.w3.org/2000/svg" width="16.359" height="16" viewBox="0 0 16.359 16">
  <path id="Path_7" data-name="Path 7" d="M1.07,16V14.7H4.107L1.5,5.964A2.686,2.686,0,0,1,.4,5.1,2.315,2.315,0,0,1,0,3.7,2.351,2.351,0,0,1,.712,1.978a2.354,2.354,0,0,1,1.727-.713,2.314,2.314,0,0,1,1.6.574,2.655,2.655,0,0,1,.834,1.484H8.707V1.611a.353.353,0,0,1,.118-.273.379.379,0,0,1,.263-.109.355.355,0,0,1,.307.154.433.433,0,0,1,.071.35V2l1.9-1.767A.777.777,0,0,1,11.794.01.832.832,0,0,1,12.307.1l3.776,1.79a.519.519,0,0,1,.234.214.3.3,0,0,1-.008.318.315.315,0,0,1-.224.184.418.418,0,0,1-.3-.055L11.883.687,9.47,3.01V4.357l2.413,2.327,3.9-1.867a.436.436,0,0,1,.3-.052.424.424,0,0,1,.23.186.382.382,0,0,1-.01.324.564.564,0,0,1-.23.239l-3.72,1.729a.99.99,0,0,1-.527.114.813.813,0,0,1-.474-.218L9.466,5.415v.267A.452.452,0,0,1,9.4,6.06a.386.386,0,0,1-.307.126A.407.407,0,0,1,8.707,5.8V4.086H4.844a2.033,2.033,0,0,1-.248.761,2.22,2.22,0,0,1-.451.6L9.022,14.7H12.98V16ZM2.43,5.38a1.625,1.625,0,0,0,1.193-.492,1.624,1.624,0,0,0,.492-1.193,1.593,1.593,0,0,0-.492-1.183A1.641,1.641,0,0,0,2.43,2.029a1.609,1.609,0,0,0-1.184.483A1.608,1.608,0,0,0,.763,3.695a1.639,1.639,0,0,0,.483,1.193A1.594,1.594,0,0,0,2.43,5.38M4.962,14.7h3.2L3.471,5.8a1.891,1.891,0,0,1-.515.2,2.12,2.12,0,0,1-.616.074Z" transform="translate(0 0)"/>
</svg>
