<svg xmlns="http://www.w3.org/2000/svg" width="30" height="30" viewBox="0 0 30 30">
  <g id="Group_250" data-name="Group 250" transform="translate(-325.014 -5338.983)">
    <path id="Path_226" data-name="Path 226" d="M120.014,47.983a15,15,0,1,1-15-15,15,15,0,0,1,15,15" transform="translate(235 5306)" fill="#4467ad"/>
    <path id="Path_227" data-name="Path 227" d="M106.174,45.938c.246-.278.45-.562.7-.8a3.849,3.849,0,0,1,2.771-1.095,6.45,6.45,0,0,1,1.744.212,3.407,3.407,0,0,1,2.419,2.544,10.616,10.616,0,0,1,.322,2.916v6.216c0,.187-.052.245-.243.243q-1.6-.015-3.2,0c-.187,0-.229-.056-.229-.234V50.029a5.305,5.305,0,0,0-.172-1.468,1.652,1.652,0,0,0-1.815-1.288,1.988,1.988,0,0,0-2.085,1.886c0,.032,0,.065,0,.1a7.7,7.7,0,0,0-.056.924v5.753c0,.187-.047.247-.242.245-1.076-.009-2.151,0-3.227,0-.173,0-.221-.045-.221-.219V44.571c0-.187.06-.232.238-.231q1.533.012,3.064,0c.187,0,.236.06.232.239-.011.453,0,.907,0,1.361" transform="translate(235 5306)" fill="#fefefe"/>
    <path id="Path_228" data-name="Path 228" d="M100.326,50.275v5.634c0,.208-.051.272-.266.27-1.067-.013-2.134-.009-3.2,0-.172,0-.223-.041-.223-.219V44.554c0-.159.038-.213.2-.213q1.625.012,3.248,0c.208,0,.236.077.236.257v5.679" transform="translate(235 5306)" fill="#fefefe"/>
    <path id="Path_229" data-name="Path 229" d="M100.621,40.571a2.132,2.132,0,1,1-2.143-2.121h.015a2.138,2.138,0,0,1,2.128,2.121" transform="translate(235 5306)" fill="#fefefe"/>
  </g>
</svg>
