<svg xmlns="http://www.w3.org/2000/svg" xmlns:xlink="http://www.w3.org/1999/xlink" width="44.661" height="49.043" viewBox="0 0 44.661 49.043">
  <defs>
    <clipPath id="clip-path">
      <rect id="Rectangle_698" data-name="Rectangle 698" width="44.661" height="49.043" transform="translate(0 0.001)" fill="#006800"/>
    </clipPath>
  </defs>
  <g id="Group_319" data-name="Group 319" transform="translate(0 -0.001)" clip-path="url(#clip-path)">
    <path id="Path_442" data-name="Path 442" d="M5.078,49.044a4.856,4.856,0,0,1-3.617-1.5A4.945,4.945,0,0,1,0,43.965v-5.7H8.557V0l3.478,2.5L15.722,0l3.617,2.5L22.957,0l3.617,2.5L30.261,0l3.617,2.5L37.5,0l3.687,2.5L44.661,0V43.965A4.945,4.945,0,0,1,43.2,47.548a4.856,4.856,0,0,1-3.617,1.5Zm34.505-2.157a2.946,2.946,0,0,0,2.121-.835,2.772,2.772,0,0,0,.87-2.087V3.9H10.644V38.261H36.661v5.7a2.854,2.854,0,0,0,2.922,2.922M14.957,11.409H29.844v2.157H14.957Zm0,10.991V20.244H29.844V22.4Zm21.287-8.139a1.786,1.786,0,0,1-1.253-.522,1.694,1.694,0,0,1-.556-1.287,1.809,1.809,0,0,1,3.617,0,1.694,1.694,0,0,1-.556,1.287,1.786,1.786,0,0,1-1.252.522m0,8.7a1.908,1.908,0,0,1-1.809-1.809,1.806,1.806,0,0,1,.556-1.322,1.689,1.689,0,0,1,2.5,0,1.806,1.806,0,0,1,.556,1.322,1.909,1.909,0,0,1-1.808,1.809M5.009,46.887H34.5V40.348H2.087v3.617a2.772,2.772,0,0,0,.87,2.087,2.861,2.861,0,0,0,2.052.835m-2.922,0v0Z" fill="#006800"/>
  </g>
</svg>
