<svg xmlns="http://www.w3.org/2000/svg" width="16" height="16" viewBox="0 0 16 16">
  <path id="Path_329" data-name="Path 329" d="M101.315,16a7.8,7.8,0,0,1-3.12-.63,7.994,7.994,0,0,1-4.252-4.249A7.765,7.765,0,0,1,93.312,8a7.8,7.8,0,0,1,.63-3.121A7.987,7.987,0,0,1,98.19.63a8.044,8.044,0,0,1,6.239,0,7.991,7.991,0,0,1,4.253,4.249A7.783,7.783,0,0,1,109.312,8a7.8,7.8,0,0,1-.63,3.12,7.987,7.987,0,0,1-4.248,4.252,7.787,7.787,0,0,1-3.119.631m-5.168-2.838L101.312,8V.683A7.064,7.064,0,0,0,96.128,2.81,7.051,7.051,0,0,0,94,8a7.093,7.093,0,0,0,.564,2.8,7.522,7.522,0,0,0,1.587,2.365" transform="translate(-93.312)" fill="#e67300"/>
</svg>
