<svg xmlns="http://www.w3.org/2000/svg" width="16" height="16" viewBox="0 0 16 16">
  <path id="Path_328" data-name="Path 328" d="M70.211,16a7.791,7.791,0,0,1-3.12-.63,7.985,7.985,0,0,1-4.253-4.248A7.786,7.786,0,0,1,62.208,8a7.788,7.788,0,0,1,.63-3.12A7.985,7.985,0,0,1,67.086.63a8.038,8.038,0,0,1,6.239,0,7.979,7.979,0,0,1,4.252,4.248A7.77,7.77,0,0,1,78.208,8a7.8,7.8,0,0,1-.63,3.12,7.987,7.987,0,0,1-4.248,4.252A7.77,7.77,0,0,1,70.211,16m-.006-.684a7.2,7.2,0,0,0,2.8-.56,7.274,7.274,0,0,0,2.368-1.591L70.208,8V.684a7.068,7.068,0,0,0-5.185,2.125A7.051,7.051,0,0,0,62.892,8a7.067,7.067,0,0,0,2.125,5.191,7.055,7.055,0,0,0,5.188,2.127" transform="translate(-62.208)" fill="#e67300"/>
</svg>
