<svg xmlns="http://www.w3.org/2000/svg" width="16" height="16" viewBox="0 0 16 16">
  <path id="Path_330" data-name="Path 330" d="M132.419,16a7.8,7.8,0,0,1-3.12-.63,7.988,7.988,0,0,1-4.252-4.248A7.77,7.77,0,0,1,124.416,8a7.8,7.8,0,0,1,.63-3.12A7.985,7.985,0,0,1,129.294.63a8.038,8.038,0,0,1,6.239,0,7.985,7.985,0,0,1,4.253,4.248A7.786,7.786,0,0,1,140.416,8a7.8,7.8,0,0,1-.63,3.12,7.985,7.985,0,0,1-4.248,4.253,7.786,7.786,0,0,1-3.119.63M125.1,8h7.316V.684a7.067,7.067,0,0,0-5.184,2.126A7.054,7.054,0,0,0,125.1,8" transform="translate(-124.416)" fill="#e67300"/>
</svg>
