<svg xmlns="http://www.w3.org/2000/svg" width="16" height="16" viewBox="0 0 16 16">
  <path id="Path_326" data-name="Path 326" d="M8,16a7.8,7.8,0,0,1-3.121-.63A7.987,7.987,0,0,1,.63,11.122,7.786,7.786,0,0,1,0,8a7.8,7.8,0,0,1,.629-3.12A7.991,7.991,0,0,1,4.878.63,7.783,7.783,0,0,1,8,0a7.8,7.8,0,0,1,3.12.63,7.987,7.987,0,0,1,4.252,4.248A7.77,7.77,0,0,1,16,8a7.8,7.8,0,0,1-.63,3.12,7.985,7.985,0,0,1-4.249,4.252A7.762,7.762,0,0,1,8,16M8,15.316a7.064,7.064,0,0,0,5.19-2.126A7.058,7.058,0,0,0,15.316,8a7.319,7.319,0,0,0-2.138-5.173L8.007,8V.684A7.076,7.076,0,0,0,2.815,2.809,7.052,7.052,0,0,0,.683,8a7.068,7.068,0,0,0,2.126,5.191A7.058,7.058,0,0,0,8,15.316" fill="#cf0000"/>
</svg>
