<svg xmlns="http://www.w3.org/2000/svg" width="30" height="30" viewBox="0 0 30 30">
  <g id="Group_251" data-name="Group 251" transform="translate(-235 -5306)">
    <path id="Path_230" data-name="Path 230" d="M30,15A15,15,0,1,1,15,0,15,15,0,0,1,30,15" transform="translate(235 5306)" fill="#5a99ec" fill-rule="evenodd"/>
    <path id="Path_231" data-name="Path 231" d="M11.97,23.638A11.251,11.251,0,0,0,23.3,12.469v-.164c0-.172,0-.345-.01-.515a8.107,8.107,0,0,0,1.988-2.063,8,8,0,0,1-2.29.628,3.99,3.99,0,0,0,1.752-2.2,7.986,7.986,0,0,1-2.528.966,3.984,3.984,0,0,0-6.891,2.724,4.039,4.039,0,0,0,.1.91A11.312,11.312,0,0,1,7.215,8.589a3.992,3.992,0,0,0,1.232,5.318,3.93,3.93,0,0,1-1.8-.5v.052a3.986,3.986,0,0,0,3.188,3.9,3.95,3.95,0,0,1-1.8.068A3.989,3.989,0,0,0,11.756,20.2a7.989,7.989,0,0,1-4.948,1.7,8.361,8.361,0,0,1-.949-.055,11.279,11.279,0,0,0,6.1,1.789" transform="translate(235 5306)" fill="#fff"/>
  </g>
</svg>
