<svg xmlns="http://www.w3.org/2000/svg" width="16" height="16" viewBox="0 0 16 16">
  <path id="Path_327" data-name="Path 327" d="M39.107,16a7.8,7.8,0,0,1-3.121-.63,7.987,7.987,0,0,1-4.252-4.248A7.786,7.786,0,0,1,31.1,8a7.8,7.8,0,0,1,.629-3.12A7.991,7.991,0,0,1,35.982.63a8.038,8.038,0,0,1,6.239,0,7.987,7.987,0,0,1,4.252,4.248A7.77,7.77,0,0,1,47.1,8a7.8,7.8,0,0,1-.63,3.12,7.985,7.985,0,0,1-4.249,4.252A7.762,7.762,0,0,1,39.107,16m0-.684a7.064,7.064,0,0,0,5.19-2.126A7.058,7.058,0,0,0,46.42,8H39.111V.684a7.076,7.076,0,0,0-5.192,2.125A7.052,7.052,0,0,0,31.787,8a7.068,7.068,0,0,0,2.126,5.191A7.058,7.058,0,0,0,39.1,15.316" transform="translate(-31.104)" fill="#e6a800"/>
</svg>
